<svg id="レイヤー_1" data-name="レイヤー 1" xmlns="http://www.w3.org/2000/svg" viewBox="0 0 197.45 197.45"><defs><style>.cls-1{fill:#e94a3c;}.cls-2{fill:none;stroke:#f9e2ed;stroke-miterlimit:10;stroke-width:3px;}.cls-3{fill:#f9e2ed;}.cls-4{fill:#fbe4ee;}</style></defs><rect class="cls-1" width="197.45" height="197.45" rx="42.06"/><path class="cls-2" d="M341.61,364l-91.89,34.34,94.79,34.81-70.16,34.28" transform="translate(-199.27 -321.77)"/><circle class="cls-3" cx="50.45" cy="76.45" r="10.8"/><circle class="cls-3" cx="142.5" cy="111.42" r="13.99"/><path class="cls-3" d="M278.74,478.93c-.08,4-3.14,7-6.43,7.07a6.75,6.75,0,0,1-6-4.15,17.67,17.67,0,0,1-4.21,1.54c-1.17.27-6,1.37-8.42-.3-3-2-3.39-8.67.15-15.76-5.33-1.46-9.62-4.68-9.94-8.15-.43-4.61,6-11,16.56-11.21,3.19-9.51,11.9-13.16,16.67-10.85,3.4,1.64,5.31,6.56,5,11.87,6.77-3.13,13.55.3,14.75,4.46,1.11,3.84-2.15,9.74-8.63,11.46a7.81,7.81,0,0,1-5.35,14.14Z" transform="translate(-199.27 -321.77)"/><path class="cls-3" d="M280.73,488.9c1.39-.19,5.16-.73,6.51,1.61.94,1.63.31,4-1.1,5.4a5.35,5.35,0,0,1-6,.81c-2.52-1.24-4-4.56-2.91-6.31C277.88,489.31,279.35,489.1,280.73,488.9Z" transform="translate(-199.27 -321.77)"/><path class="cls-3" d="M292.15,501a3.09,3.09,0,0,1,3.5,2.11,3,3,0,0,1-1.3,2.9,3.05,3.05,0,0,1-3.31.3,3,3,0,0,1-1.1-3.7A3.08,3.08,0,0,1,292.15,501Z" transform="translate(-199.27 -321.77)"/><path class="cls-4" d="M333.47,394.78c-4.67-1.55-19.21-7.11-25.51-22.64a38.54,38.54,0,0,1-2.18-7.47c-1.48-10.13,4.62-19.27,12.3-20.33,6.41-.89,13.05,4,15.4,11.91,2.24-8.3,9.44-13.29,16.33-11.86,7.66,1.6,13.11,10.76,11.36,20.28a40.37,40.37,0,0,1-2.49,8.15C352.13,388,338,393.33,333.47,394.78Z" transform="translate(-199.27 -321.77)"/></svg>