<svg id="レイヤー_1" data-name="レイヤー 1" xmlns="http://www.w3.org/2000/svg" viewBox="0 0 212.68 212.68"><defs><style>.cls-1{fill:#e94a3c;}.cls-2{fill:none;stroke:#f9e2ed;stroke-miterlimit:10;stroke-width:3px;}.cls-3{fill:#f9e2ed;}.cls-4{fill:#fbe4ee;}</style></defs><circle class="cls-1" cx="106.34" cy="106.34" r="106.34"/><path class="cls-2" d="M339.4,365.27l-91.89,34.35,94.79,34.81-70.16,34.28" transform="translate(-191.66 -314.16)"/><circle class="cls-3" cx="55.85" cy="85.36" r="10.8"/><circle class="cls-3" cx="147.91" cy="120.33" r="13.99"/><path class="cls-3" d="M276.53,480.23c-.08,4-3.14,7-6.43,7.07a6.75,6.75,0,0,1-6-4.15,17.67,17.67,0,0,1-4.21,1.54c-1.17.27-6,1.37-8.41-.3-3-2-3.4-8.67.14-15.76-5.33-1.46-9.61-4.68-9.94-8.15-.43-4.61,6-11,16.56-11.21,3.19-9.51,11.91-13.16,16.67-10.85,3.4,1.64,5.31,6.56,5,11.87,6.77-3.13,13.56.3,14.75,4.46,1.11,3.84-2.15,9.74-8.63,11.46a7.81,7.81,0,0,1-5.35,14.14Z" transform="translate(-191.66 -314.16)"/><path class="cls-3" d="M278.52,490.2c1.39-.2,5.16-.73,6.51,1.6.94,1.64.31,4-1.1,5.41a5.33,5.33,0,0,1-6,.8c-2.52-1.23-4-4.55-2.91-6.31C275.67,490.61,277.14,490.4,278.52,490.2Z" transform="translate(-191.66 -314.16)"/><path class="cls-3" d="M289.94,502.32a3.1,3.1,0,0,1,3.5,2.1,3,3,0,0,1-1.3,2.91,3.07,3.07,0,0,1-3.31.3,3,3,0,0,1-1.1-3.71A3.09,3.09,0,0,1,289.94,502.32Z" transform="translate(-191.66 -314.16)"/><path class="cls-4" d="M331.26,396.08c-4.67-1.55-19.21-7.11-25.51-22.64a39.26,39.26,0,0,1-2.18-7.47c-1.48-10.14,4.62-19.27,12.3-20.33,6.41-.89,13.05,4,15.4,11.91,2.24-8.31,9.44-13.3,16.33-11.86,7.66,1.6,13.11,10.76,11.36,20.28a40.37,40.37,0,0,1-2.49,8.15C349.92,389.34,335.76,394.63,331.26,396.08Z" transform="translate(-191.66 -314.16)"/></svg>